<svg width="600" height="600" viewBox="0 0 600 600" fill="none" xmlns="http://www.w3.org/2000/svg">
<path d="M492 252C492 358.039 406.039 444 300 444C193.961 444 108 358.039 108 252C108 145.961 193.961 60 300 60C406.039 60 492 145.961 492 252Z" fill="#7657FF"/>
<path fill-rule="evenodd" clip-rule="evenodd" d="M300 65C196.723 65 113 148.723 113 252C113 355.277 196.723 439 300 439C403.277 439 487 355.277 487 252C487 148.723 403.277 65 300 65ZM103 252C103 143.2 191.2 55 300 55C408.8 55 497 143.2 497 252C497 360.8 408.8 449 300 449C191.2 449 103 360.8 103 252Z" fill="#1E1F27"/>
<path fill-rule="evenodd" clip-rule="evenodd" d="M300.129 153.001C309.218 153.001 316.71 160.417 316.71 169.529L316.714 235.597H382.542C391.631 235.597 399 242.984 399 252.097C399 261.21 391.631 268.597 382.542 268.597H316.714L316.713 334.454C316.713 343.566 309.344 350.954 300.254 350.954C291.164 350.954 283.796 343.566 283.796 334.454L283.797 268.597H217.678C208.588 268.597 201 260.982 201 251.869C201 242.757 208.588 235.597 217.678 235.597H283.797L283.793 169.529C283.793 160.417 291.039 153.001 300.129 153.001Z" fill="white"/>
<path fill-rule="evenodd" clip-rule="evenodd" d="M422.225 362.301C428.989 351.235 446.078 362.301 450.469 372.392C456.219 385.606 454.86 394.827 454.86 411.3C454.86 424.5 453.396 446.538 449.988 459.49C446.579 472.442 435.101 517.381 433.667 522.138C432.234 526.895 430.6 529.163 427.87 531.427C425.14 533.691 421.712 535 418.161 535C414.61 535 334.613 535 334.613 535C329.379 534.988 327.015 532.18 324.003 527.47L250.153 426.573C242.104 413.802 238.759 398.167 251.414 388.259C265.151 377.506 275.777 382.271 287.606 394.395L313.856 420.812C313.856 420.812 314.092 292.266 313.856 282.592C313.067 250.214 357.098 246.768 357.688 282.592C357.848 292.266 357.688 380.824 357.688 380.824L357.713 342.678C357.713 330.159 374.528 333.171 381.138 338.02C385.119 340.941 389.981 347.799 389.981 354.514C389.981 341.995 406.797 345.007 413.407 349.856C417.388 352.777 421.562 356.975 422.225 362.301Z" fill="#F8DB46"/>
<path fill-rule="evenodd" clip-rule="evenodd" d="M335.45 262.012C327.226 262.335 318.525 268.985 318.854 282.47C318.974 287.391 318.973 322.051 318.944 355.334C318.929 372.008 318.907 388.38 318.889 400.583C318.88 406.684 318.871 411.744 318.865 415.278L318.856 420.819C318.856 420.82 318.856 420.821 313.856 420.812L318.856 420.821C318.852 422.844 317.629 424.666 315.757 425.436C313.886 426.206 311.735 425.771 310.309 424.336L284.059 397.919L284.027 397.887C278.271 391.987 273.496 388.643 269.092 387.618C265.097 386.688 260.522 387.48 254.496 392.196C249.554 396.066 247.811 400.849 248.016 406.149C248.229 411.66 250.588 417.847 254.292 423.763L328.037 524.517C328.099 524.602 328.158 524.688 328.214 524.776C329.722 527.132 330.683 528.363 331.59 529.086C332.262 529.621 333.045 529.996 334.624 530L418.161 530C420.479 530 422.792 529.142 424.678 527.578C425.766 526.677 426.469 525.915 427.049 525.013C427.649 524.08 428.249 522.789 428.88 520.695C429.766 517.755 434.662 498.779 439.014 481.911C441.54 472.12 443.883 463.039 445.152 458.217C448.395 445.895 449.86 424.37 449.86 411.3C449.86 408.325 449.898 405.63 449.933 403.145C450.098 391.363 450.197 384.298 445.884 374.387C444.237 370.6 439.831 366.141 435.122 363.943C432.819 362.869 430.91 362.557 429.556 362.743C428.721 362.858 427.943 363.171 427.225 363.931L427.225 395.444C427.225 398.206 424.986 400.444 422.225 400.444C419.463 400.444 417.225 398.206 417.225 395.444L417.225 362.653C416.721 359.587 414.105 356.569 410.449 353.888C408.049 352.127 403.306 350.509 399.419 350.668C397.537 350.745 396.451 351.215 395.916 351.661C395.558 351.96 394.981 352.609 394.981 354.514L394.956 388.902C394.954 391.664 392.714 393.901 389.953 393.899C387.191 393.897 384.954 391.657 384.956 388.895L384.981 354.514M391.533 342.603C391.477 342.506 391.421 342.409 391.365 342.313C389.359 338.895 386.712 335.908 384.096 333.989C379.886 330.9 372.916 328.588 366.742 328.84C365.452 328.893 364.097 329.062 362.752 329.406C362.767 308.002 362.761 286.99 362.687 282.51C362.523 272.505 359.293 264.681 354.019 259.394C348.767 254.13 341.848 251.754 335.059 252.02C321.317 252.559 308.397 263.821 308.857 282.714C308.973 287.468 308.974 321.918 308.944 355.325C308.929 371.997 308.907 388.366 308.889 400.568C308.884 403.548 308.88 406.28 308.876 408.707L291.185 390.903C291.179 390.898 291.174 390.892 291.169 390.887C285.1 384.67 278.653 379.577 271.359 377.878C263.65 376.083 256.043 378.286 248.332 384.322C240.619 390.36 237.707 398.348 238.023 406.535C238.33 414.467 241.63 422.427 245.923 429.239C245.984 429.337 246.05 429.433 246.118 429.526L319.876 530.298C321.361 532.613 323.066 535.08 325.358 536.907C327.93 538.956 330.946 539.991 334.601 540H334.613V535C334.613 540 334.612 540 334.613 540L418.161 540C422.944 540 427.488 538.24 431.062 535.276C432.704 533.914 434.182 532.409 435.46 530.422C436.718 528.466 437.652 526.244 438.455 523.581C439.396 520.458 444.485 500.735 448.9 483.626C451.364 474.076 453.618 465.34 454.823 460.763C458.397 447.181 459.86 424.631 459.86 411.3C459.86 408.664 459.9 406.173 459.939 403.785C460.135 391.804 460.288 382.425 455.054 370.397C452.31 364.092 445.976 357.973 439.351 354.882C435.987 353.312 432.082 352.301 428.192 352.837C426.839 353.023 425.536 353.391 424.31 353.945C422.056 350.415 418.933 347.709 416.364 345.825C412.154 342.736 405.185 340.424 399.011 340.676C396.579 340.776 393.919 341.289 391.533 342.603ZM384.981 354.51C384.98 352.31 384.16 349.793 382.74 347.375C381.32 344.955 379.545 343.053 378.181 342.052C375.781 340.291 371.037 338.673 367.151 338.832C365.269 338.909 364.182 339.379 363.647 339.825C363.337 340.084 362.863 340.606 362.741 341.979C362.732 351.254 362.72 360.004 362.71 366.843C362.704 371.07 362.698 374.567 362.694 377.008L362.688 380.827V380.829L362.688 380.832C362.688 380.832 362.688 380.833 357.688 380.824L362.688 380.833C362.683 383.593 360.442 385.827 357.682 385.824C354.921 385.82 352.686 383.581 352.688 380.82L352.688 380.814L352.688 380.75L352.712 342.678C352.712 342.677 352.712 342.676 352.712 342.675C352.712 342.327 352.722 341.983 352.742 341.645C352.744 339.561 352.746 337.451 352.748 335.331C352.768 311.946 352.767 287.455 352.689 282.675C352.558 274.767 350.063 269.588 346.939 266.457C343.794 263.304 339.644 261.848 335.45 262.012" fill="#F8DB46"/>
<path fill-rule="evenodd" clip-rule="evenodd" d="M335.45 262.012C327.226 262.335 318.525 268.985 318.854 282.47C318.974 287.391 318.973 322.051 318.944 355.334C318.929 372.008 318.907 388.38 318.889 400.583C318.88 406.684 318.871 411.744 318.865 415.278L318.856 420.819C318.856 420.82 318.856 420.821 313.856 420.812L318.856 420.821C318.852 422.844 317.629 424.666 315.757 425.436C313.886 426.206 311.735 425.771 310.309 424.336L284.059 397.919L284.027 397.887C278.271 391.987 273.496 388.643 269.092 387.618C265.097 386.688 260.522 387.48 254.496 392.196C249.554 396.066 247.811 400.849 248.016 406.149C248.229 411.66 250.588 417.847 254.292 423.763L328.037 524.517C328.099 524.602 328.158 524.688 328.214 524.776C329.722 527.132 330.683 528.363 331.59 529.086C332.262 529.621 333.045 529.996 334.624 530L418.161 530C420.479 530 422.792 529.142 424.678 527.578C425.766 526.677 426.469 525.915 427.049 525.013C427.649 524.08 428.249 522.789 428.88 520.695C429.766 517.755 434.662 498.779 439.014 481.911C441.54 472.12 443.883 463.039 445.152 458.217C448.395 445.895 449.86 424.37 449.86 411.3C449.86 408.325 449.898 405.63 449.933 403.145C450.098 391.363 450.197 384.298 445.884 374.387C444.237 370.6 439.831 366.141 435.122 363.943C432.819 362.869 430.91 362.557 429.556 362.743C428.721 362.858 427.943 363.171 427.225 363.931L427.225 395.444C427.225 398.206 424.986 400.444 422.225 400.444C419.463 400.444 417.225 398.206 417.225 395.444L417.225 362.653C416.721 359.587 414.105 356.569 410.449 353.888C408.049 352.127 403.306 350.509 399.419 350.668C397.537 350.745 396.451 351.215 395.916 351.661C395.558 351.96 394.981 352.609 394.981 354.514L394.956 388.902C394.954 391.664 392.714 393.901 389.953 393.899C387.191 393.897 384.954 391.657 384.956 388.895L384.981 354.514M391.533 342.603C391.477 342.506 391.421 342.409 391.365 342.313C389.359 338.895 386.712 335.908 384.096 333.989C379.886 330.9 372.916 328.588 366.742 328.84C365.452 328.893 364.097 329.062 362.752 329.406C362.767 308.002 362.761 286.99 362.687 282.51C362.523 272.505 359.293 264.681 354.019 259.394C348.767 254.13 341.848 251.754 335.059 252.02C321.317 252.559 308.397 263.821 308.857 282.714C308.973 287.468 308.974 321.918 308.944 355.325C308.929 371.997 308.907 388.366 308.889 400.568C308.884 403.548 308.88 406.28 308.876 408.707L291.185 390.903C291.179 390.898 291.174 390.892 291.169 390.887C285.1 384.67 278.653 379.577 271.359 377.878C263.65 376.083 256.043 378.286 248.332 384.322C240.619 390.36 237.707 398.348 238.023 406.535C238.33 414.467 241.63 422.427 245.923 429.239C245.984 429.337 246.05 429.433 246.118 429.526L319.876 530.298C321.361 532.613 323.066 535.08 325.358 536.907C327.93 538.956 330.946 539.991 334.601 540H334.613V535C334.613 540 334.612 540 334.613 540L418.161 540C422.944 540 427.488 538.24 431.062 535.276C432.704 533.914 434.182 532.409 435.46 530.422C436.718 528.466 437.652 526.244 438.455 523.581C439.396 520.458 444.485 500.735 448.9 483.626C451.364 474.076 453.618 465.34 454.823 460.763C458.397 447.181 459.86 424.631 459.86 411.3C459.86 408.664 459.9 406.173 459.939 403.785C460.135 391.804 460.288 382.425 455.054 370.397C452.31 364.092 445.976 357.973 439.351 354.882C435.987 353.312 432.082 352.301 428.192 352.837C426.839 353.023 425.536 353.391 424.31 353.945C422.056 350.415 418.933 347.709 416.364 345.825C412.154 342.736 405.185 340.424 399.011 340.676C396.579 340.776 393.919 341.289 391.533 342.603ZM384.981 354.51C384.98 352.31 384.16 349.793 382.74 347.375C381.32 344.955 379.545 343.053 378.181 342.052C375.781 340.291 371.037 338.673 367.151 338.832C365.269 338.909 364.182 339.379 363.647 339.825C363.337 340.084 362.863 340.606 362.741 341.979C362.732 351.254 362.72 360.004 362.71 366.843C362.704 371.07 362.698 374.567 362.694 377.008L362.688 380.827V380.829L362.688 380.832C362.688 380.832 362.688 380.833 357.688 380.824L362.688 380.833C362.683 383.593 360.442 385.827 357.682 385.824C354.921 385.82 352.686 383.581 352.688 380.82L352.688 380.814L352.688 380.75L352.712 342.678C352.712 342.677 352.712 342.676 352.712 342.675C352.712 342.327 352.722 341.983 352.742 341.645C352.744 339.561 352.746 337.451 352.748 335.331C352.768 311.946 352.767 287.455 352.689 282.675C352.558 274.767 350.063 269.588 346.939 266.457C343.794 263.304 339.644 261.848 335.45 262.012" fill="#1E1F27"/>
</svg>
